# xmcd
#
# Track frame offsets: 
#        150
#        15154
#        29616
#        49144
#        64736
#        88252
#        102747
#        115566
#        131911
#        146063
#        163643
#        175288
#        192825
#        203242
#        218500
#
# Disc length: 3102 seconds
#
# Revision: 0
# Processed by: cddbd v1.5.2PL0 Copyright (c) Steve Scherf et al.
# Submitted via: ExactAudioCopy v1.3
#
DISCID=d80c1c0f
DTITLE=Junior Watson - Nothin' To It But To Do It
DYEAR=2019
DGENRE=Blues
TTITLE0=Up And Out
TTITLE1=Don't Freeze On Me
TTITLE2=Louella
TTITLE3=Ska-Ra-VAn
TTITLE4=A Shot In The Dark
TTITLE5=Whole Lotta Of Lovin'
TTITLE6=Summr Love 
TTITLE7=That's Tough
TTITLE8=One Way Street
TTITLE9=Well, You Know
TTITLE10=Space Flight
TTITLE11=I Found You
TTITLE12=So Glad She's Mine
TTITLE13=The Pee Wee Classic
TTITLE14=You're Gonna Need Me Before I Need You
EXTD=
EXTT0=
EXTT1=
EXTT2=
EXTT3=
EXTT4=
EXTT5=
EXTT6=
EXTT7=
EXTT8=
EXTT9=
EXTT10=
EXTT11=
EXTT12=
EXTT13=
EXTT14=
PLAYORDER=
